<svg xmlns="http://www.w3.org/2000/svg" width="70.212" height="60.851" viewBox="0 0 70.212 60.851">
  <g id="business-and-finance" transform="translate(0 -34.134)">
    <g id="Group_24" data-name="Group 24" transform="translate(1.17 35.304)">
      <path id="Path_119" data-name="Path 119" d="M44.006,41.667H97.836a2.34,2.34,0,0,1,2.34,2.34V97.837a2.34,2.34,0,0,1-2.34,2.34H44.006a2.34,2.34,0,0,1-2.34-2.34V44.007A2.341,2.341,0,0,1,44.006,41.667Z" transform="translate(-36.985 -41.667)"/>
      <path id="Path_120" data-name="Path 120" d="M44.006,41.667H94.325a2.34,2.34,0,0,1,2.34,2.34V97.837a2.34,2.34,0,0,1-2.34,2.34H44.006a2.34,2.34,0,0,1-2.34-2.34V44.007A2.341,2.341,0,0,1,44.006,41.667Z" transform="translate(-36.985 -41.667)" fill="#d1e9ea"/>
      <path id="Path_121" data-name="Path 121" d="M63.58,130.836,49.432,145.815l3.417,3.335,13.493-14.288,4.447-.328,11.55,9.526,9.327.515,15.084-24.516-3.99-2.446L88.786,140.327l-3.6.012H85.17L72.93,130.251Z" transform="translate(-43.686 -107.198)" fill="#d1e9ea"/>
      <g id="Group_23" data-name="Group 23" transform="translate(0 3.511)">
        <circle id="Ellipse_18" data-name="Ellipse 18" cx="4.681" cy="4.681" r="4.681" transform="translate(19.893 15.213)" fill="#919d9e"/>
        <circle id="Ellipse_19" data-name="Ellipse 19" cx="4.681" cy="4.681" r="4.681" transform="translate(38.617 29.255)" fill="#919d9e"/>
        <circle id="Ellipse_20" data-name="Ellipse 20" cx="4.681" cy="4.681" r="4.681" transform="translate(58.51)" fill="#919d9e"/>
        <circle id="Ellipse_21" data-name="Ellipse 21" cx="4.681" cy="4.681" r="4.681" transform="translate(0 35.106)" fill="#919d9e"/>
      </g>
      <path id="Path_122" data-name="Path 122" d="M18.065,100.176H14.554a2.347,2.347,0,0,1-2.34-2.34V89.644a4.681,4.681,0,0,1,0-9.362V44.006a2.347,2.347,0,0,1,2.34-2.34h3.511a2.347,2.347,0,0,0-2.34,2.34V80.283a4.681,4.681,0,1,0,0,9.362v8.191A2.347,2.347,0,0,0,18.065,100.176Z" transform="translate(-7.533 -41.666)" fill="#fff"/>
    </g>
    <g id="Group_26" data-name="Group 26" transform="translate(0 34.134)">
      <path id="Path_123" data-name="Path 123" d="M36.473,59.733V96.009h-2.34V59.733Z" transform="translate(-29.452 -56.223)" fill="#fff"/>
      <g id="Group_25" data-name="Group 25">
        <path id="Path_124" data-name="Path 124" d="M35.216,121.806a1.175,1.175,0,0,0,.831-2l-.175-.141a.891.891,0,0,0-.211-.106.744.744,0,0,0-.211-.07,1.712,1.712,0,0,0-.234-.023,1.228,1.228,0,0,0-.831.339,1.154,1.154,0,0,0,.386,1.907A1.169,1.169,0,0,0,35.216,121.806Z" transform="translate(-29.365 -107.764)"/>
        <path id="Path_125" data-name="Path 125" d="M65.532,37.763v-.118a3.514,3.514,0,0,0-3.511-3.511H8.191a3.514,3.514,0,0,0-3.511,3.511v4.681a1.17,1.17,0,0,0,2.34,0V37.644a1.171,1.171,0,0,1,1.17-1.17H62.021a1.171,1.171,0,0,1,1.17,1.17v.118A5.861,5.861,0,0,0,58.51,43.5a5.8,5.8,0,0,0,.416,2.131L45.747,67.05a5.351,5.351,0,0,0-2.838.087L31.5,57.733a5.837,5.837,0,0,0-11.595.888L7.021,72.259V51.687a1.17,1.17,0,0,0-2.34,0V72.869a5.851,5.851,0,0,0,0,11.466v7.14a3.514,3.514,0,0,0,3.511,3.511H62.021a3.514,3.514,0,0,0,3.511-3.511V49.228a5.851,5.851,0,0,0,0-11.465Zm-5.163,9.985a5.834,5.834,0,0,0,1.994,1.224L49.517,69.848a5.865,5.865,0,0,0-1.625-1.82Zm-12.39,25a3.511,3.511,0,1,1-3.511-3.511A3.511,3.511,0,0,1,47.978,72.751Zm-8.735-2.58-9.169-7.562a5.823,5.823,0,0,0,1.189-2.035l9.414,7.758A5.853,5.853,0,0,0,39.243,70.17ZM25.744,55.2a3.511,3.511,0,1,1-3.511,3.511A3.511,3.511,0,0,1,25.744,55.2ZM8.928,73.647l11.621-12.3a5.849,5.849,0,0,0,1.467,1.836L10.626,75.241A5.876,5.876,0,0,0,8.928,73.647ZM2.34,78.6a3.511,3.511,0,1,1,3.511,3.511A3.511,3.511,0,0,1,2.34,78.6Zm59.68,14.042H8.191a1.171,1.171,0,0,1-1.17-1.17V84.335A5.749,5.749,0,0,0,11.6,77.617l12.561-13.3a5.523,5.523,0,0,0,3.965-.276l10.493,8.654c0,.02-.006.038-.006.057a5.839,5.839,0,0,0,11.671.312l12.9-20.973V91.474A1.171,1.171,0,0,1,62.021,92.644Zm2.34-45.638A3.511,3.511,0,1,1,67.872,43.5,3.511,3.511,0,0,1,64.361,47.006Z" transform="translate(0 -34.134)"/>
      </g>
    </g>
  </g>
</svg>
