<svg id="Default_Dropdown" data-name="Default Dropdown" xmlns="http://www.w3.org/2000/svg" width="296" height="33" viewBox="0 0 296 33">
  <g id="Field" fill="rgba(65,95,119,0)" stroke="#415f77" stroke-width="2">
    <rect width="296" height="33" rx="6" stroke="none"/>
    <rect x="1" y="1" width="294" height="31" rx="5" fill="none"/>
  </g>
  <text id="Nigeria" transform="translate(38 21)" stroke="rgba(0,0,0,0)" stroke-width="1" font-size="13" font-family="Helvetica"><tspan x="0" y="0">Nigeria</tspan></text>
  <g id="dropdown" transform="translate(270 14)">
    <path id="dropdown-2" data-name="dropdown" d="M5,6a.908.908,0,0,1-.7-.3l-4-4A.967.967,0,0,1,.3.3.967.967,0,0,1,1.7.3L5,3.6,8.3.3A.967.967,0,0,1,9.7.3a.967.967,0,0,1,0,1.4l-4,4A.908.908,0,0,1,5,6Z" fill="#a6adb4" stroke="#707070" stroke-width="1"/>
  </g>
  <g id="nigeria-2" data-name="nigeria" transform="translate(9 8.997)">
    <path id="Path_761" data-name="Path 761" d="M289.213,13.537l-1.049,2.569a17.013,17.013,0,0,1,0,9.835l1.049,2.569a8.075,8.075,0,0,0,5.992-7.486A8.075,8.075,0,0,0,289.213,13.537Z" transform="translate(-279.205 -13.02)" fill="#518d51"/>
    <g id="Group_242" data-name="Group 242" transform="translate(7.779 0.003)">
      <path id="Path_762" data-name="Path 762" d="M239.839,3.425V.517a8.969,8.969,0,0,0-3-.514C238.228,0,236.306,4.7,239.839,3.425Z" transform="translate(-236.817 -0.003)" fill="#e4e4e4"/>
      <path id="Path_763" data-name="Path 763" d="M236.214,386.366a8.97,8.97,0,0,0,3-.514v-2.908C235.714,382.6,236.214,386.366,236.214,386.366Z" transform="translate(-236.19 -370.366)" fill="#e4e4e4"/>
    </g>
    <g id="Group_243" data-name="Group 243" transform="translate(0 0.505)">
      <path id="Path_764" data-name="Path 764" d="M0,20.729a8.081,8.081,0,0,0,6.027,7.5v-15A8.081,8.081,0,0,0,0,20.729Z" transform="translate(0 -13.231)" fill="#589f58"/>
      <path id="Path_765" data-name="Path 765" d="M315.8,90.169v9.156A14.793,14.793,0,0,0,315.8,90.169Z" transform="translate(-303.818 -87.249)" fill="#589f58"/>
    </g>
    <path id="Path_766" data-name="Path 766" d="M164.766,12.958V3.05c-.612-1.8-1.611-3.046-3-3.046a9.975,9.975,0,0,0-2.962.447V15.557A9.975,9.975,0,0,0,161.77,16C163.156,16,164.154,14.756,164.766,12.958Z" transform="translate(-153.772 -0.001)" fill="#f3f4f5"/>
  </g>
</svg>
