<svg id="faucet" xmlns="http://www.w3.org/2000/svg" width="107.237" height="75.401" viewBox="0 0 107.237 75.401">
  <path id="Path_36" data-name="Path 36" d="M105.709,36.283H93.142a3.142,3.142,0,0,1,0-6.283h12.567a3.325,3.325,0,0,1,3.351,3.142A3.325,3.325,0,0,1,105.709,36.283Z" transform="translate(-71.15 -23.717)" fill="#0d70b2"/>
  <path id="Path_37" data-name="Path 37" d="M226.918,36.283H214.142a3.142,3.142,0,0,1,0-6.283h12.776a3.142,3.142,0,1,1,0,6.283Z" transform="translate(-166.807 -23.717)" fill="#095c92"/>
  <path id="Path_38" data-name="Path 38" d="M188.482,64.341V76.656a3.111,3.111,0,0,1-3.142,3.142h-.251a3.153,3.153,0,0,1-2.891-3.142V64.341A3.2,3.2,0,0,1,185.09,61.2h.251A3.151,3.151,0,0,1,188.482,64.341Z" transform="translate(-144.038 -48.381)" fill="#0d70b2"/>
  <path id="Path_39" data-name="Path 39" d="M199.393,64.341V76.656a3.111,3.111,0,0,1-3.142,3.142H196V61.2h.251A3.151,3.151,0,0,1,199.393,64.341Z" transform="translate(-154.948 -48.381)" fill="#095c92"/>
  <path id="Path_40" data-name="Path 40" d="M278.91,152.2a20.614,20.614,0,0,0-9.425-2.2H244.351A3.294,3.294,0,0,0,241,153.142v18.85a3.294,3.294,0,0,0,3.351,3.142H263.2a3.111,3.111,0,0,1,3.142,3.142v12.567a3.111,3.111,0,0,0,3.142,3.142h18.85a3.111,3.111,0,0,0,3.142-3.142v-18.85A21.861,21.861,0,0,0,278.91,152.2Z" transform="translate(-190.523 -118.583)" fill="#a8aff1"/>
  <path id="Path_42" data-name="Path 42" d="M28.275,175.134H3.142A3.14,3.14,0,0,1,0,171.992v-18.85A3.14,3.14,0,0,1,3.142,150H28.275a3.14,3.14,0,0,1,3.142,3.142v18.85A3.14,3.14,0,0,1,28.275,175.134Z" transform="translate(0 -118.583)" fill="#c5c9f7"/>
  <path id="Path_43" data-name="Path 43" d="M281.425,18.85a9.425,9.425,0,1,1,9.425-9.425A9.436,9.436,0,0,1,281.425,18.85Z" transform="translate(-215.03)" fill="#1689fc"/>
  <path id="Path_44" data-name="Path 44" d="M39.425,18.85A9.425,9.425,0,1,1,48.85,9.425,9.436,9.436,0,0,1,39.425,18.85Z" transform="translate(-23.717)" fill="#18a7fc"/>
  <path id="Path_45" data-name="Path 45" d="M142.2,120H129.425A9.412,9.412,0,0,0,120,129.425v18.85a9.412,9.412,0,0,0,9.425,9.425H142.2a9.593,9.593,0,0,0,9.635-9.425v-18.85A9.593,9.593,0,0,0,142.2,120Z" transform="translate(-94.866 -94.866)" fill="#e1e4fb"/>
  <path id="Path_46" data-name="Path 46" d="M211.918,129.425v18.85a9.593,9.593,0,0,1-9.635,9.425H196V120h6.283A9.593,9.593,0,0,1,211.918,129.425Z" transform="translate(-154.948 -94.866)" fill="#c5c9f7"/>
  <path id="Path_47" data-name="Path 47" d="M369.7,333.142a3.111,3.111,0,0,1-3.142,3.142H335.142a3.142,3.142,0,0,1,0-6.283h31.417A3.111,3.111,0,0,1,369.7,333.142Z" transform="translate(-262.464 -260.883)" fill="#e1e4fb"/>
  <path id="Path_48" data-name="Path 48" d="M440.85,333.142a3.111,3.111,0,0,1-3.142,3.142H422V330h15.708A3.111,3.111,0,0,1,440.85,333.142Z" transform="translate(-333.613 -260.883)" fill="#c5c9f7"/>
  <path id="Path_49" data-name="Path 49" d="M159.635,0A9.593,9.593,0,0,0,150,9.425v6.283a3.111,3.111,0,0,0,3.142,3.142h12.776a3.111,3.111,0,0,0,3.142-3.142V9.425A9.412,9.412,0,0,0,159.635,0Z" transform="translate(-118.583)" fill="#18a7fc"/>
  <path id="Path_50" data-name="Path 50" d="M205.425,9.425v6.283a3.111,3.111,0,0,1-3.142,3.142H196V0A9.412,9.412,0,0,1,205.425,9.425Z" transform="translate(-154.948)" fill="#1689fc"/>
</svg>
