<svg xmlns="http://www.w3.org/2000/svg" width="194.704" height="151.244" viewBox="0 0 194.704 151.244">
  <g id="friends" transform="translate(0 -57.142)">
    <g id="Group_217" data-name="Group 217" transform="translate(23.529 57.142)">
      <g id="Group_216" data-name="Group 216">
        <path id="Path_713" data-name="Path 713" d="M97.412,57.142c-19.6,0-35.539,16.9-35.539,37.681S77.816,132.5,97.412,132.5s35.539-16.9,35.539-37.681S117.008,57.142,97.412,57.142Z" transform="translate(-61.873 -57.142)" fill="#415f77"/>
      </g>
    </g>
    <g id="Group_219" data-name="Group 219" transform="translate(109.383 62.534)">
      <g id="Group_218" data-name="Group 218" transform="translate(0 0)">
        <path id="Path_714" data-name="Path 714" d="M318.121,71.321h-.242a29.481,29.481,0,0,0-21.63,9.778,33.656,33.656,0,0,0,.374,45.378,29.491,29.491,0,0,0,21.543,9.421h.246a29.483,29.483,0,0,0,21.63-9.778,33.086,33.086,0,0,0,8.611-22.762C348.507,85.639,334.834,71.321,318.121,71.321Z" transform="translate(-287.637 -71.321)" fill="#6f9cc1"/>
      </g>
    </g>
    <g id="Group_221" data-name="Group 221" transform="translate(102.661 133.28)">
      <g id="Group_220" data-name="Group 220">
        <path id="Path_715" data-name="Path 715" d="M308.665,257.358h-2.951a53.144,53.144,0,0,0-35.754,13.789,68.613,68.613,0,0,1,26.791,50.9H362V310.693A53.4,53.4,0,0,0,308.665,257.358Z" transform="translate(-269.96 -257.358)" fill="#6f9cc1"/>
      </g>
    </g>
    <g id="Group_223" data-name="Group 223" transform="translate(0 144.293)">
      <g id="Group_222" data-name="Group 222">
        <path id="Path_716" data-name="Path 716" d="M118.02,340a57.281,57.281,0,0,0-57.175-53.68H57.293A57.292,57.292,0,0,0,0,343.611v6.8H118.134v-6.8Q118.134,341.792,118.02,340Z" transform="translate(0 -286.318)" fill="#415f77"/>
      </g>
    </g>
  </g>
</svg>
