<svg id="hand-wash" xmlns="http://www.w3.org/2000/svg" width="512" height="512" viewBox="0 0 512 512">
  <path id="Path_65" data-name="Path 65" d="M512,256A255.809,255.809,0,0,1,392.7,472.48H119.3A256.052,256.052,0,1,1,512,256Z" fill="#464f6e"/>
  <path id="Path_66" data-name="Path 66" d="M512,256A255.809,255.809,0,0,1,392.7,472.48H119.3A256.133,256.133,0,0,1,33.68,129a257.094,257.094,0,0,0,97.26,96.41,253.784,253.784,0,0,0,56.8,23.38A255.728,255.728,0,0,0,256,258h.01a254.71,254.71,0,0,0,125.06-32.59A257.139,257.139,0,0,0,478.32,129,254.786,254.786,0,0,1,512,256Z" fill="#303c5a"/>
  <g id="Group_16" data-name="Group 16">
    <path id="Path_67" data-name="Path 67" d="M366.671,69.278l-5.123,9.538h-.014l-5.123,9.524a57.149,57.149,0,0,0-26.984-6.8h-73.42V59.9h73.42a78.885,78.885,0,0,1,37.244,9.38Z" fill="#fff"/>
    <path id="Path_68" data-name="Path 68" d="M361.534,78.816l-5.123,9.524a57.149,57.149,0,0,0-26.984-6.8h-73.42V70.721h73.42a67.749,67.749,0,0,1,32.107,8.1Z" fill="#cff6ff"/>
    <path id="Path_69" data-name="Path 69" d="M238.691,70.721h34.632v87.071H238.691Z" fill="#cff6ff"/>
    <path id="Path_70" data-name="Path 70" d="M256.007,70.721h17.316v87.071H256.007Z" fill="#b0edf7"/>
    <path id="Path_71" data-name="Path 71" d="M301.166,135.96v58.085H210.834V135.96a6.955,6.955,0,0,1,6.955-6.955h76.422a6.954,6.954,0,0,1,6.955,6.955Z" fill="#20d7fe"/>
    <path id="Path_72" data-name="Path 72" d="M301.166,135.96v58.085H256V129h38.207A6.955,6.955,0,0,1,301.166,135.96Z" fill="#00b3ff"/>
    <path id="Path_73" data-name="Path 73" d="M337.9,170.4V275.715H174.1V170.4a12.606,12.606,0,0,1,12.612-12.612H325.286A12.606,12.606,0,0,1,337.9,170.4Z" fill="#20d7fe"/>
    <path id="Path_74" data-name="Path 74" d="M337.9,170.4V275.715H215.055V170.4a12.606,12.606,0,0,1,12.612-12.612h97.619A12.606,12.606,0,0,1,337.9,170.4Z" fill="#00b3ff"/>
    <path id="Path_75" data-name="Path 75" d="M337.9,170.4V275.721H256.007V157.785h69.279A12.613,12.613,0,0,1,337.9,170.4Z" fill="#00a4ff"/>
    <g id="Group_14" data-name="Group 14">
      <path id="Path_76" data-name="Path 76" d="M392.7,251.22V472.48a256.183,256.183,0,0,1-273.4,0V251.22a34.481,34.481,0,0,1,34.46-34.46H358.24a34.464,34.464,0,0,1,34.46,34.46Z" fill="#fff"/>
      <path id="Path_77" data-name="Path 77" d="M392.7,251.22V472.48A254.733,254.733,0,0,1,256.01,512H256a256.354,256.354,0,0,1-52.34-5.36,34.429,34.429,0,0,1-16.01-29.1V251.22q0-1.23.09-2.43a34.454,34.454,0,0,1,34.37-32.03H358.24a34.464,34.464,0,0,1,34.46,34.46Z" fill="#cff6ff"/>
      <path id="Path_78" data-name="Path 78" d="M392.7,251.22V472.48A254.733,254.733,0,0,1,256.01,512V216.76H358.24a34.464,34.464,0,0,1,34.46,34.46Z" fill="#b0edf7"/>
    </g>
    <g id="Group_15" data-name="Group 15">
      <path id="Path_79" data-name="Path 79" d="M316.815,360.738v40.548H276.267V441.82H235.733V401.286H195.184V360.738h40.549V320.189h40.534v40.549Z" fill="#de1263"/>
    </g>
    <path id="Path_80" data-name="Path 80" d="M309.8,92.236H202.2a6.585,6.585,0,0,1-6.58-7.288,60.809,60.809,0,0,1,59.611-53.507c.245-.014.505-.014.765-.014h.014a60.82,60.82,0,0,1,60.375,53.521,6.585,6.585,0,0,1-6.579,7.288Z" fill="#20d7fe"/>
    <path id="Path_81" data-name="Path 81" d="M309.8,92.236h-82.4c-2.078,0-3.737-3.391-3.492-7.288,1.876-29.668,15.137-52.785,31.313-53.507.245-.014.505-.014.765-.014h.014a60.82,60.82,0,0,1,60.375,53.521A6.585,6.585,0,0,1,309.8,92.236Z" fill="#00b3ff"/>
    <path id="Path_82" data-name="Path 82" d="M309.8,92.236h-53.8V31.428a60.82,60.82,0,0,1,60.375,53.521,6.586,6.586,0,0,1-6.58,7.287Z" fill="#00a4ff"/>
    <path id="Path_83" data-name="Path 83" d="M316.815,360.738v40.548H276.267V441.82h-20.26V320.189h20.26v40.549Z" fill="#a30856"/>
  </g>
  <path id="Path_84" data-name="Path 84" d="M512,256c0,141.38-114.62,256-256,256S0,397.38,0,256a256,256,0,1,1,512,0Z" fill="none"/>
  <path id="Path_85" data-name="Path 85" d="M384.828,142.193a19.087,19.087,0,0,1-28.1-25.679c2.446-3.118,4.744-6.345,7.007-9.6l6.181-8.892a2.243,2.243,0,0,1,3.687,0l6.181,8.892c2.263,3.255,4.561,6.482,7.007,9.6A19.087,19.087,0,0,1,384.828,142.193Z" fill="#ffbc00"/>
  <path id="Path_86" data-name="Path 86" d="M384.828,142.193a19.008,19.008,0,0,1-13.062,5.151V97.057a2.228,2.228,0,0,1,1.842.965l6.181,8.892c2.263,3.255,4.561,6.482,7.007,9.6A19.087,19.087,0,0,1,384.828,142.193Z" fill="#ff9100"/>
</svg>
