<svg xmlns="http://www.w3.org/2000/svg" width="18.15" height="26.401" viewBox="0 0 18.15 26.401">
  <path id="Icon_awesome-lightbulb" data-name="Icon awesome-lightbulb" d="M4.953,23.428a1.651,1.651,0,0,0,.276.912l.881,1.325a1.65,1.65,0,0,0,1.374.736h3.182a1.649,1.649,0,0,0,1.374-.736l.881-1.325a1.649,1.649,0,0,0,.276-.912l0-1.977H4.951l0,1.977ZM0,9.075a9.024,9.024,0,0,0,2.246,5.97A14.818,14.818,0,0,1,4.938,19.76c0,.013,0,.027.006.04h8.262c0-.013,0-.026.006-.04A14.818,14.818,0,0,1,15.9,15.045,9.073,9.073,0,1,0,0,9.075ZM9.075,4.95A4.13,4.13,0,0,0,4.95,9.075a.825.825,0,1,1-1.65,0A5.781,5.781,0,0,1,9.075,3.3a.825.825,0,1,1,0,1.65Z" transform="translate(0 0)" fill="#ffe01b"/>
</svg>
