<svg xmlns="http://www.w3.org/2000/svg" width="56.354" height="59.217" viewBox="0 0 56.354 59.217">
  <g id="medical-file" transform="translate(-6.425 -3.5)">
    <path id="Path_719" data-name="Path 719" d="M61.472,33.552H58.989V9.192A1.541,1.541,0,0,0,57.448,7.65H22.135a1.541,1.541,0,0,0-1.542,1.542v2.569H18.024A1.541,1.541,0,0,0,16.483,13.3v14.76H14a3.426,3.426,0,0,0-3.426,3.426V61.41A3.426,3.426,0,0,0,14,64.836H61.471A3.426,3.426,0,0,0,64.9,61.41V36.978A3.425,3.425,0,0,0,61.472,33.552Z" transform="translate(-2.118 -2.119)" fill="#707070"/>
    <g id="Group_234" data-name="Group 234" transform="translate(6.425 3.5)">
      <g id="Group_231" data-name="Group 231" transform="translate(6.398 0.489)">
        <path id="Path_720" data-name="Path 720" d="M30.985,24.913a3.463,3.463,0,0,1,2.669,1.257l2.477,3A3.4,3.4,0,0,0,38.754,30.4H65.265V5.479a.979.979,0,0,0-.979-.979H28.876a.979.979,0,0,0-.979.979V24.913Z" transform="translate(-23.787 -4.5)" fill="#ffd00c"/>
        <path id="Path_721" data-name="Path 721" d="M26.7,29.2a3.463,3.463,0,0,1,2.669,1.257l2.477,3a3.4,3.4,0,0,0,2.623,1.235h22.4V13.878a.979.979,0,0,0-.979-.979H20.477a.979.979,0,0,0-.979.979V29.2h7.2Z" transform="translate(-19.498 -8.789)" fill="#ffd00c"/>
        <path id="Path_722" data-name="Path 722" d="M55.887,12.9H20.477a.979.979,0,0,0-.979.979v1.468a.979.979,0,0,1,.979-.979h35.41a.979.979,0,0,1,.979.979V13.878A.979.979,0,0,0,55.887,12.9Z" transform="translate(-19.498 -8.789)" fill="#fff"/>
      </g>
      <path id="Path_723" data-name="Path 723" d="M57.785,51.7H28.3a3.4,3.4,0,0,1-2.623-1.235l-2.477-3a3.463,3.463,0,0,0-2.669-1.257H10.361a2.936,2.936,0,0,0-2.936,2.936V79.02a2.936,2.936,0,0,0,2.936,2.936H57.785a2.936,2.936,0,0,0,2.936-2.936V54.636A2.937,2.937,0,0,0,57.785,51.7Z" transform="translate(-6.936 -25.308)" fill="#fc5050"/>
      <g id="Group_233" data-name="Group 233" transform="translate(0 0)">
        <path id="Path_724" data-name="Path 724" d="M30.272,71.161H25.849V66.738a.556.556,0,0,0-.556-.556H20.925a.556.556,0,0,0-.556.556v4.423H15.945a.556.556,0,0,0-.556.556v4.368a.556.556,0,0,0,.556.556h4.423v4.423a.556.556,0,0,0,.556.556h4.368a.556.556,0,0,0,.556-.556V76.642h4.423a.556.556,0,0,0,.556-.556V71.718A.556.556,0,0,0,30.272,71.161Z" transform="translate(-11.002 -35.506)" fill="#415f77"/>
        <g id="Group_232" data-name="Group 232">
          <path id="Path_725" data-name="Path 725" d="M56.584,26.073H29.736a.489.489,0,1,0,0,.979H56.584a.489.489,0,0,0,0-.979Z" transform="translate(-18.078 -15.026)" fill="#3a2c60"/>
          <path id="Path_726" data-name="Path 726" d="M56.584,36.572H29.736a.489.489,0,1,0,0,.979H56.584a.489.489,0,0,0,0-.979Z" transform="translate(-18.078 -20.387)" fill="#3a2c60"/>
          <path id="Path_727" data-name="Path 727" d="M67.305,47.072H50.734a.489.489,0,1,0,0,.979H67.305a.489.489,0,1,0,0-.979Z" transform="translate(-28.8 -25.748)" fill="#3a2c60"/>
          <path id="Path_728" data-name="Path 728" d="M115.814,78.228a.489.489,0,0,0-.489.489v5.689a.489.489,0,0,0,.979,0V78.717A.489.489,0,0,0,115.814,78.228Z" transform="translate(-62.029 -41.656)" fill="#3a2c60"/>
          <path id="Path_729" data-name="Path 729" d="M57.274,29.4H54.791V4.968A1.47,1.47,0,0,0,53.323,3.5H17.912a1.47,1.47,0,0,0-1.468,1.468V7.61H13.8a1.47,1.47,0,0,0-1.468,1.468V23.913H9.851a3.43,3.43,0,0,0-3.426,3.426V57.212a3.43,3.43,0,0,0,3.426,3.426H57.274A3.43,3.43,0,0,0,60.7,57.212v-9a.489.489,0,1,0-.979,0v9a2.45,2.45,0,0,1-2.447,2.447H9.851A2.45,2.45,0,0,1,7.4,57.212V27.339a2.45,2.45,0,0,1,2.447-2.447h10.17a2.966,2.966,0,0,1,2.292,1.079l2.478,3a3.88,3.88,0,0,0,3,1.412H57.275a2.45,2.45,0,0,1,2.447,2.447v5.857a.489.489,0,1,0,.979,0V32.828A3.431,3.431,0,0,0,57.274,29.4ZM17.423,4.968a.49.49,0,0,1,.489-.489h35.41a.49.49,0,0,1,.489.489V29.4H50.68V9.079A1.47,1.47,0,0,0,49.212,7.61H17.423Zm8.123,23.377-2.478-3a3.942,3.942,0,0,0-3.047-1.434H13.312V9.079a.49.49,0,0,1,.489-.489h35.41a.49.49,0,0,1,.489.489V29.4H27.791A2.9,2.9,0,0,1,25.545,28.345Z" transform="translate(-6.425 -3.5)" fill="#3a2c60"/>
          <path id="Path_730" data-name="Path 730" d="M20.415,81.6h4.368a1.047,1.047,0,0,0,1.046-1.046V76.621h3.933a1.047,1.047,0,0,0,1.046-1.046V71.207a1.047,1.047,0,0,0-1.046-1.046H25.829V66.228a1.047,1.047,0,0,0-1.046-1.046H20.415a1.047,1.047,0,0,0-1.046,1.046v3.933H15.436a1.047,1.047,0,0,0-1.046,1.046v4.368a1.047,1.047,0,0,0,1.046,1.046h3.933v3.933A1.047,1.047,0,0,0,20.415,81.6Zm-4.979-5.958a.067.067,0,0,1-.067-.067V71.207a.067.067,0,0,1,.067-.067h4.423a.49.49,0,0,0,.489-.489V66.228a.067.067,0,0,1,.067-.067h4.368a.067.067,0,0,1,.067.067v4.423a.49.49,0,0,0,.489.489h4.423a.067.067,0,0,1,.067.067v4.368a.067.067,0,0,1-.067.067H25.339a.49.49,0,0,0-.489.489v4.423a.067.067,0,0,1-.067.067H20.415a.067.067,0,0,1-.067-.067V76.131a.49.49,0,0,0-.489-.489Z" transform="translate(-10.492 -34.995)" fill="#3a2c60"/>
        </g>
      </g>
    </g>
  </g>
</svg>
