<svg xmlns="http://www.w3.org/2000/svg" width="25" height="25" viewBox="0 0 25 25">
  <g id="business-and-finance" transform="translate(0 -34.134)">
    <g id="Group_24" data-name="Group 24" transform="translate(0.477 34.611)">
      <path id="Path_119" data-name="Path 119" d="M42.475,41.667H61.09a.9.9,0,0,1,.809.962V64.752a.9.9,0,0,1-.809.962H42.475a.9.9,0,0,1-.809-.962V42.629A.9.9,0,0,1,42.475,41.667Z" transform="translate(-39.759 -41.667)"/>
      <path id="Path_120" data-name="Path 120" d="M42.466,41.667h17.2a.892.892,0,0,1,.8.962V64.752a.892.892,0,0,1-.8.962h-17.2a.892.892,0,0,1-.8-.962V42.629A.892.892,0,0,1,42.466,41.667Z" transform="translate(-39.759 -41.667)" fill="#d1e9ea"/>
      <path id="Path_121" data-name="Path 121" d="M54.306,123l-4.874,6.1,1.177,1.359,4.649-5.82,1.532-.133,3.979,3.88,3.213.21,5.2-9.986-1.375-1-4.814,9.252-1.242,0h0l-4.217-4.109Z" transform="translate(-47.092 -113.288)" fill="#d1e9ea"/>
      <g id="Group_23" data-name="Group 23" transform="translate(0 1.43)">
        <circle id="Ellipse_18" data-name="Ellipse 18" cx="1.907" cy="1.907" r="1.907" transform="translate(6.879 6.197)" fill="#030303"/>
        <circle id="Ellipse_19" data-name="Ellipse 19" cx="1.907" cy="1.907" r="1.907" transform="translate(13.354 11.917)"/>
        <circle id="Ellipse_20" data-name="Ellipse 20" cx="1.907" cy="1.907" r="1.907" transform="translate(20.233)"/>
        <circle id="Ellipse_21" data-name="Ellipse 21" cx="1.907" cy="1.907" r="1.907" transform="translate(0 14.3)"/>
      </g>
      <path id="Path_122" data-name="Path 122" d="M11.823,65.713h-1.43a.96.96,0,0,1-.953-.962V61.384a1.924,1.924,0,0,1,0-3.847V42.628a.96.96,0,0,1,.953-.962h1.43a.96.96,0,0,0-.953.962V57.537a1.924,1.924,0,0,0,0,3.847v3.367A.96.96,0,0,0,11.823,65.713Z" transform="translate(-7.533 -41.666)" fill="#fff"/>
    </g>
    <g id="Group_26" data-name="Group 26" transform="translate(0 34.134)">
      <path id="Path_123" data-name="Path 123" d="M35.086,59.733V74.51h-.953V59.733Z" transform="translate(-32.226 -58.303)" fill="#fff"/>
      <g id="Group_25" data-name="Group 25">
        <path id="Path_124" data-name="Path 124" d="M34.514,120.419a.479.479,0,0,0,.338-.815l-.071-.057a.362.362,0,0,0-.086-.043.3.3,0,0,0-.086-.028.7.7,0,0,0-.1-.01.5.5,0,0,0-.338.138.47.47,0,0,0,.157.777A.476.476,0,0,0,34.514,120.419Z" transform="translate(-32.131 -114.657)"/>
        <path id="Path_125" data-name="Path 125" d="M23.333,35.625v-.049a1.358,1.358,0,0,0-1.25-1.442H2.917a1.358,1.358,0,0,0-1.25,1.442V37.5a.452.452,0,0,0,.417.481A.452.452,0,0,0,2.5,37.5V35.576a.453.453,0,0,1,.417-.481H22.083a.453.453,0,0,1,.417.481v.049a2.35,2.35,0,0,0-1.667,2.355,2.705,2.705,0,0,0,.148.875l-4.693,8.8a1.662,1.662,0,0,0-1.01.036L11.215,43.83a2.162,2.162,0,0,0-2.209-2,2.282,2.282,0,0,0-1.92,2.361L2.5,49.8V41.345a.452.452,0,0,0-.417-.481.452.452,0,0,0-.417.481v8.7a2.5,2.5,0,0,0,0,4.711v2.933a1.358,1.358,0,0,0,1.25,1.442H22.083a1.358,1.358,0,0,0,1.25-1.442V40.335a2.5,2.5,0,0,0,0-4.71Zm-1.839,4.1a2.053,2.053,0,0,0,.71.5l-4.573,8.577a2.331,2.331,0,0,0-.579-.748ZM17.083,50a1.357,1.357,0,0,1-1.25,1.442,1.457,1.457,0,0,1,0-2.885A1.358,1.358,0,0,1,17.083,50Zm-3.11-1.06-3.265-3.107A2.5,2.5,0,0,0,11.131,45l3.352,3.187A2.39,2.39,0,0,0,13.973,48.939ZM9.167,42.788a1.457,1.457,0,0,1,0,2.885,1.457,1.457,0,0,1,0-2.885Zm-5.988,7.58,4.138-5.055a2.377,2.377,0,0,0,.522.754L3.783,51.023A2.251,2.251,0,0,0,3.179,50.368ZM.833,52.4a1.357,1.357,0,0,1,1.25-1.442,1.457,1.457,0,0,1,0,2.885A1.358,1.358,0,0,1,.833,52.4Zm21.25,5.769H2.917a.453.453,0,0,1-.417-.481V54.759a2.052,2.052,0,0,0,1.311-.99A2.659,2.659,0,0,0,4.131,52L8.6,46.534a1.727,1.727,0,0,0,1.412-.113l3.736,3.555c0,.008,0,.015,0,.024a2.268,2.268,0,0,0,2.024,2.4,2.226,2.226,0,0,0,2.132-2.275L22.5,41.511V57.692A.453.453,0,0,1,22.083,58.172Zm.833-18.75a1.457,1.457,0,1,1,1.25-1.442A1.357,1.357,0,0,1,22.917,39.422Z" transform="translate(0 -34.134)"/>
      </g>
    </g>
  </g>
</svg>
