<svg id="cough" xmlns="http://www.w3.org/2000/svg" width="512" height="512" viewBox="0 0 512 512">
  <g id="Group_1" data-name="Group 1">
    <path id="Path_1" data-name="Path 1" d="M466.78,401.32A255.711,255.711,0,0,1,256,512C114.62,512,0,397.38,0,256A256.14,256.14,0,0,1,346.85,16.6l19.78,31.94A668.409,668.409,0,0,1,466.78,401.32Z" fill="#464f6e"/>
    <path id="Path_2" data-name="Path 2" d="M466.78,401.32A255.711,255.711,0,0,1,256,512C114.62,512,0,397.38,0,256A254.786,254.786,0,0,1,33.68,129,255.906,255.906,0,0,0,256,258a255.066,255.066,0,0,0,176.05-70.16A668.131,668.131,0,0,1,466.78,401.32Z" fill="#303c5a"/>
  </g>
  <g id="Group_11" data-name="Group 11">
    <path id="Path_3" data-name="Path 3" fill="#9de6ed"/>
    <g id="Group_3" data-name="Group 3">
      <path id="Path_4" data-name="Path 4" d="M512,256a254.853,254.853,0,0,1-45.22,145.32,56.708,56.708,0,0,0-11.29-.59c-21.43,1.04-41.18,14.48-62.61,13.56a47.449,47.449,0,0,1-43.09-62.27c2.4-7.65,7.42-19.17,4.34-27.34-3.28-8.7-29.9-21.75-34.25-27.72s.55-15.77,5.44-27.18,29.36-12.5,29.36-12.5-26.09-5.43-34.8-13.59c-8.69-8.15-10.87-21.75-2.72-26.63,3.52-2.11,8.44-8.35,12.91-14.77a17.408,17.408,0,0,0-5.68-25,55.874,55.874,0,0,1-10.48-7.53c-13.16-12.44-4.76-30.89,6.98-40.75,9.86-8.27,22.16-14.22,29.13-25.04,12.98-20.15,2.15-46.25-1.71-69.89a112.137,112.137,0,0,1-1.46-17.48A255.97,255.97,0,0,1,512,256Z" fill="#ffc0a4"/>
      <g id="Group_2" data-name="Group 2">
        <path id="Path_5" data-name="Path 5" d="M332.293,170.34c3.735-5.665,30.215,2.361,26.91,12.275S328.557,176,332.293,170.34Z" fill="#ffa87a"/>
        <path id="Path_6" data-name="Path 6" d="M354.677,257.28s-26.091-5.429-34.795-13.589-10.869-21.749-2.72-26.635C317.163,217.056,343.925,227.808,354.677,257.28Z" fill="#ffa87a"/>
        <path id="Path_7" data-name="Path 7" d="M354.677,257.28c-4.821,23.093-11.115,34.219-34.795,39.68-4.341-5.984.544-15.765,5.44-27.179s29.355-12.5,29.355-12.5Z" fill="#ffa87a"/>
      </g>
    </g>
    <circle id="Ellipse_1" data-name="Ellipse 1" cx="256" cy="256" r="256" fill="none"/>
    <g id="Group_6" data-name="Group 6">
      <g id="Group_4" data-name="Group 4">
        <path id="Path_8" data-name="Path 8" d="M284.748,232.874l-6.823-6.8-17.7,2.563L247.55,216.01l-17.707,2.562-10.726-10.685a5.5,5.5,0,1,1,7.763-7.793l6.83,6.8,17.707-2.562,12.673,12.625,17.7-2.563,10.719,10.683a5.5,5.5,0,0,1-7.765,7.792Z" fill="#fff"/>
      </g>
      <g id="Group_5" data-name="Group 5">
        <path id="Path_9" data-name="Path 9" d="M236.226,312.7l-14.985-2.168a5.5,5.5,0,1,1,1.575-10.886l9.543,1.38L245.034,288.4l17.7,2.563,12.672-12.626,14.978,2.17a5.5,5.5,0,1,1-1.578,10.886l-9.534-1.382L266.6,302.633,248.9,300.07Z" fill="#fff"/>
      </g>
    </g>
    <path id="Path_10" data-name="Path 10" d="M239.581,267.005l-19.3-8-19.3,8-16.329-6.767a5.5,5.5,0,1,1,4.212-10.161l12.117,5.022,19.3-8,19.3,8,19.3-8,16.325,6.767a5.5,5.5,0,1,1-4.212,10.161l-12.113-5.021Z" fill="#fff"/>
    <g id="Group_7" data-name="Group 7">
      <path id="Path_11" data-name="Path 11" d="M224.249,387.724a7.81,7.81,0,0,1-7.816,7.816h-35.1l24.833,24.833a7.816,7.816,0,0,1-11.054,11.054l-24.833-24.833V441.7a7.81,7.81,0,0,1-7.37,7.794,3.035,3.035,0,0,1-.447.022,7.825,7.825,0,0,1-7.816-7.816V406.594L129.83,431.427a7.816,7.816,0,0,1-11.054-11.054l24.811-24.833H108.5a7.816,7.816,0,0,1,0-15.632h35.083L118.776,355.1a7.816,7.816,0,1,1,11.054-11.054l24.811,24.811V333.77a7.81,7.81,0,0,1,7.816-7.816,3.049,3.049,0,0,1,.447.022,7.8,7.8,0,0,1,7.37,7.794v35.083l24.833-24.811A7.816,7.816,0,1,1,206.161,355.1l-24.833,24.811h35.1a7.826,7.826,0,0,1,7.816,7.817Z" fill="#81f700"/>
      <path id="Path_12" data-name="Path 12" d="M224.249,387.724a7.81,7.81,0,0,1-7.816,7.816h-35.1l24.833,24.833a7.816,7.816,0,0,1-11.054,11.054l-24.833-24.833V441.7a7.81,7.81,0,0,1-7.37,7.794V325.977a7.8,7.8,0,0,1,7.37,7.794v35.083l24.833-24.811A7.816,7.816,0,1,1,206.161,355.1l-24.833,24.811h35.1a7.825,7.825,0,0,1,7.816,7.816Z" fill="#00cc7f"/>
      <path id="Path_13" data-name="Path 13" d="M200.488,387.724a37.455,37.455,0,0,1-37.45,37.45H162.9a37.439,37.439,0,0,1,0-74.878h.134A37.436,37.436,0,0,1,200.488,387.724Z" fill="#00cc7f"/>
      <path id="Path_14" data-name="Path 14" d="M200.488,387.724a37.455,37.455,0,0,1-37.45,37.45H162.9V350.3h.134a37.436,37.436,0,0,1,37.45,37.428Z" fill="#029291"/>
      <path id="Path_15" data-name="Path 15" d="M181.819,387.724a18.78,18.78,0,0,1-18.781,18.781H162.9a18.781,18.781,0,0,1,0-37.562h.134A18.794,18.794,0,0,1,181.819,387.724Z" fill="#81f700"/>
      <path id="Path_16" data-name="Path 16" d="M181.819,387.724a18.78,18.78,0,0,1-18.781,18.781H162.9V368.943h.134A18.794,18.794,0,0,1,181.819,387.724Z" fill="#00cc7f"/>
    </g>
    <g id="Group_8" data-name="Group 8">
      <path id="Path_17" data-name="Path 17" d="M111.77,276.764a5.586,5.586,0,0,1-5.59,5.59H81.074l17.76,17.76a5.59,5.59,0,0,1-7.906,7.906l-17.76-17.76v25.106a5.586,5.586,0,0,1-5.27,5.574,2.132,2.132,0,0,1-.319.016,5.6,5.6,0,0,1-5.59-5.59V290.26L44.245,308.02a5.59,5.59,0,0,1-7.906-7.906l17.744-17.76H28.993a5.59,5.59,0,1,1,0-11.18h25.09L36.339,253.43a5.59,5.59,0,0,1,7.906-7.906l17.744,17.744v-25.09a5.586,5.586,0,0,1,5.59-5.59,2.124,2.124,0,0,1,.319.016,5.575,5.575,0,0,1,5.27,5.574v25.09l17.76-17.744a5.59,5.59,0,0,1,7.906,7.906l-17.76,17.744H106.18a5.6,5.6,0,0,1,5.59,5.59Z" fill="#81f700"/>
      <path id="Path_18" data-name="Path 18" d="M111.77,276.764a5.586,5.586,0,0,1-5.59,5.59H81.074l17.76,17.76a5.59,5.59,0,0,1-7.906,7.906l-17.76-17.76v25.106a5.586,5.586,0,0,1-5.27,5.574V232.605a5.575,5.575,0,0,1,5.27,5.574v25.09l17.76-17.744a5.59,5.59,0,0,1,7.906,7.906l-17.76,17.744H106.18a5.6,5.6,0,0,1,5.59,5.589Z" fill="#00cc7f"/>
      <path id="Path_19" data-name="Path 19" d="M94.777,276.764a26.787,26.787,0,0,1-26.783,26.783h-.1a26.775,26.775,0,0,1,0-53.55h.1a26.773,26.773,0,0,1,26.783,26.767Z" fill="#00cc7f"/>
      <path id="Path_20" data-name="Path 20" d="M94.777,276.764a26.787,26.787,0,0,1-26.783,26.783h-.1V250h.1a26.773,26.773,0,0,1,26.783,26.767Z" fill="#029291"/>
      <path id="Path_21" data-name="Path 21" d="M81.425,276.764A13.431,13.431,0,0,1,67.994,290.2h-.1a13.432,13.432,0,0,1,0-26.863h.1A13.442,13.442,0,0,1,81.425,276.764Z" fill="#81f700"/>
      <path id="Path_22" data-name="Path 22" d="M81.425,276.764A13.431,13.431,0,0,1,67.994,290.2h-.1V263.332h.1A13.442,13.442,0,0,1,81.425,276.764Z" fill="#00cc7f"/>
    </g>
    <g id="Group_9" data-name="Group 9">
      <path id="Path_23" data-name="Path 23" d="M341.347,432.57a4.966,4.966,0,0,1-4.969,4.969h-22.32l15.789,15.788a4.97,4.97,0,0,1-7.028,7.028L307.03,444.567v22.32a4.966,4.966,0,0,1-4.685,4.955,1.922,1.922,0,0,1-.284.014,4.975,4.975,0,0,1-4.969-4.969v-22.32l-15.774,15.788a4.97,4.97,0,0,1-7.028-7.028l15.774-15.788h-22.3a4.969,4.969,0,0,1,0-9.938h22.3L274.29,411.826a4.97,4.97,0,1,1,7.028-7.028l15.774,15.775V398.267a4.966,4.966,0,0,1,4.969-4.969,1.929,1.929,0,0,1,.284.014,4.955,4.955,0,0,1,4.685,4.955v22.306L322.819,404.8a4.97,4.97,0,0,1,7.028,7.028L314.058,427.6h22.32a4.975,4.975,0,0,1,4.969,4.969Z" fill="#81f700"/>
      <path id="Path_24" data-name="Path 24" d="M341.347,432.57a4.966,4.966,0,0,1-4.969,4.969h-22.32l15.789,15.788a4.97,4.97,0,0,1-7.028,7.028L307.03,444.567v22.32a4.966,4.966,0,0,1-4.685,4.955V393.311a4.955,4.955,0,0,1,4.685,4.955v22.306L322.819,404.8a4.97,4.97,0,0,1,7.028,7.028L314.058,427.6h22.32a4.976,4.976,0,0,1,4.969,4.97Z" fill="#00cc7f"/>
      <path id="Path_25" data-name="Path 25" d="M326.24,432.57a23.814,23.814,0,0,1-23.811,23.811h-.085a23.8,23.8,0,0,1,0-47.607h.085A23.8,23.8,0,0,1,326.24,432.57Z" fill="#00cc7f"/>
      <path id="Path_26" data-name="Path 26" d="M326.24,432.57a23.814,23.814,0,0,1-23.811,23.811h-.085V408.774h.085A23.8,23.8,0,0,1,326.24,432.57Z" fill="#029291"/>
      <path id="Path_27" data-name="Path 27" d="M314.37,432.57a11.941,11.941,0,0,1-11.941,11.941h-.085a11.941,11.941,0,0,1,0-23.882h.085A11.95,11.95,0,0,1,314.37,432.57Z" fill="#81f700"/>
      <path id="Path_28" data-name="Path 28" d="M314.37,432.57a11.941,11.941,0,0,1-11.941,11.941h-.085V420.63h.085A11.948,11.948,0,0,1,314.37,432.57Z" fill="#00cc7f"/>
    </g>
    <g id="Group_10" data-name="Group 10">
      <path id="Path_29" data-name="Path 29" d="M201.994,141.292a5.586,5.586,0,0,1-5.59,5.59H171.3l17.76,17.76a5.59,5.59,0,0,1-7.906,7.906l-17.76-17.76v25.106a5.586,5.586,0,0,1-5.271,5.574,2.13,2.13,0,0,1-.319.016,5.6,5.6,0,0,1-5.59-5.59V154.788l-17.744,17.76a5.59,5.59,0,0,1-7.906-7.906l17.744-17.76h-25.09a5.59,5.59,0,1,1,0-11.18h25.09l-17.744-17.744a5.59,5.59,0,0,1,7.906-7.906L152.212,127.8v-25.09a5.586,5.586,0,0,1,5.59-5.59,2.125,2.125,0,0,1,.319.016,5.575,5.575,0,0,1,5.271,5.574V127.8l17.76-17.744a5.59,5.59,0,1,1,7.906,7.906L171.3,135.7H196.4A5.6,5.6,0,0,1,201.994,141.292Z" fill="#81f700"/>
      <path id="Path_30" data-name="Path 30" d="M201.994,141.292a5.586,5.586,0,0,1-5.59,5.59H171.3l17.76,17.76a5.59,5.59,0,0,1-7.906,7.906l-17.76-17.76v25.106a5.586,5.586,0,0,1-5.271,5.574V97.133a5.575,5.575,0,0,1,5.271,5.574V127.8l17.76-17.744a5.59,5.59,0,0,1,7.906,7.906L171.3,135.7H196.4A5.6,5.6,0,0,1,201.994,141.292Z" fill="#00cc7f"/>
      <path id="Path_31" data-name="Path 31" d="M185,141.292a26.787,26.787,0,0,1-26.783,26.783h-.1a26.775,26.775,0,0,1,0-53.55h.1A26.774,26.774,0,0,1,185,141.292Z" fill="#00cc7f"/>
      <path id="Path_32" data-name="Path 32" d="M185,141.292a26.787,26.787,0,0,1-26.783,26.783h-.1v-53.55h.1A26.774,26.774,0,0,1,185,141.292Z" fill="#029291"/>
      <path id="Path_33" data-name="Path 33" d="M171.65,141.292a13.431,13.431,0,0,1-13.431,13.431h-.1a13.431,13.431,0,0,1,0-26.862h.1A13.441,13.441,0,0,1,171.65,141.292Z" fill="#81f700"/>
      <path id="Path_34" data-name="Path 34" d="M171.65,141.292a13.431,13.431,0,0,1-13.431,13.431h-.1V127.86h.1A13.442,13.442,0,0,1,171.65,141.292Z" fill="#00cc7f"/>
    </g>
  </g>
</svg>
