<svg xmlns="http://www.w3.org/2000/svg" width="177.6" height="248.15" viewBox="0 0 177.6 248.15">
  <g id="drop" transform="translate(-35.275 0)">
    <g id="Group_12" data-name="Group 12">
      <path id="Path_35" data-name="Path 35" d="M134.475,8.551c-6.8-11.6-14-11.2-20.8,0-31.2,46.4-78.4,116-78.4,150.8a88.8,88.8,0,1,0,177.6,0C212.875,124.151,165.675,54.951,134.475,8.551Zm53.6,190.4a75.951,75.951,0,0,1-26.8,26,10.743,10.743,0,0,1-10.4-18.8,52.95,52.95,0,0,0,19.2-18.4,52.145,52.145,0,0,0,8-25.6,10.617,10.617,0,1,1,21.2,1.2A79.244,79.244,0,0,1,188.075,198.951Z"/>
    </g>
  </g>
</svg>
