<svg id="faucet" xmlns="http://www.w3.org/2000/svg" width="303.909" height="303.909" viewBox="0 0 303.909 303.909">
  <path id="Path_36" data-name="Path 36" d="M134.518,47.807H98.9A8.9,8.9,0,1,1,98.9,30h35.614c4.921,0,9.5,3.982,9.5,8.9S139.439,47.807,134.518,47.807Z" transform="translate(-36.579 -12.193)" fill="#0d70b2"/>
  <path id="Path_37" data-name="Path 37" d="M256.111,47.807H219.9A8.9,8.9,0,0,1,219.9,30h36.208a8.9,8.9,0,1,1,0,17.807Z" transform="translate(-85.756 -12.193)" fill="#095c92"/>
  <path id="Path_38" data-name="Path 38" d="M200.006,70.1v34.9a8.816,8.816,0,0,1-8.9,8.9h-.712a8.935,8.935,0,0,1-8.192-8.9V70.1a9.066,9.066,0,0,1,8.192-8.9h.712A8.93,8.93,0,0,1,200.006,70.1Z" transform="translate(-74.051 -24.873)" fill="#0d70b2"/>
  <path id="Path_39" data-name="Path 39" d="M205.615,70.1v34.9a8.816,8.816,0,0,1-8.9,8.9H196V61.2h.712A8.93,8.93,0,0,1,205.615,70.1Z" transform="translate(-79.66 -24.873)" fill="#095c92"/>
  <path id="Path_40" data-name="Path 40" d="M348.437,156.232A58.421,58.421,0,0,0,321.726,150H250.5c-4.987,0-9.5,3.917-9.5,8.9v53.421c0,4.987,4.511,8.9,9.5,8.9h53.421a8.816,8.816,0,0,1,8.9,8.9v35.614a8.816,8.816,0,0,0,8.9,8.9h53.422a8.816,8.816,0,0,0,8.9-8.9V212.325A61.954,61.954,0,0,0,348.437,156.232Z" transform="translate(-97.949 -60.964)" fill="#a8aff1"/>
  <path id="Path_41" data-name="Path 41" d="M429.489,386.152l-23.861-50.988a8.8,8.8,0,0,0-16.026,0l-24.218,51.345A34.956,34.956,0,0,0,362,401.822c0,19.587,16.027,36.208,35.614,36.208s35.614-16.621,35.614-36.208A33.878,33.878,0,0,0,429.489,386.152Z" transform="translate(-147.127 -134.121)" fill="#1bd9de"/>
  <path id="Path_42" data-name="Path 42" d="M80.132,221.229H8.9a8.9,8.9,0,0,1-8.9-8.9V158.9A8.9,8.9,0,0,1,8.9,150H80.132a8.9,8.9,0,0,1,8.9,8.9v53.421A8.9,8.9,0,0,1,80.132,221.229Z" transform="translate(0 -60.964)" fill="#c5c9f7"/>
  <path id="Path_43" data-name="Path 43" d="M298.711,53.421a26.711,26.711,0,1,1,26.711-26.711A26.74,26.74,0,0,1,298.711,53.421Z" transform="translate(-110.548)" fill="#1689fc"/>
  <path id="Path_44" data-name="Path 44" d="M56.711,53.421A26.711,26.711,0,1,1,83.421,26.711,26.74,26.74,0,0,1,56.711,53.421Z" transform="translate(-12.193)" fill="#18a7fc"/>
  <path id="Path_45" data-name="Path 45" d="M182.919,120H146.711A26.674,26.674,0,0,0,120,146.711v53.421a26.674,26.674,0,0,0,26.711,26.711h36.208c14.781,0,27.3-11.93,27.3-26.711V146.711C210.223,131.93,197.7,120,182.919,120Z" transform="translate(-48.771 -48.771)" fill="#e1e4fb"/>
  <path id="Path_46" data-name="Path 46" d="M241.111,146.711v53.421c0,14.781-12.524,26.711-27.3,26.711H196V120h17.807C228.588,120,241.111,131.93,241.111,146.711Z" transform="translate(-79.66 -48.771)" fill="#c5c9f7"/>
  <path id="Path_47" data-name="Path 47" d="M438.843,338.9a8.816,8.816,0,0,1-8.9,8.9H340.9a8.9,8.9,0,0,1,0-17.807h89.036A8.816,8.816,0,0,1,438.843,338.9Z" transform="translate(-134.934 -134.121)" fill="#e1e4fb"/>
  <path id="Path_48" data-name="Path 48" d="M475.421,338.9a8.816,8.816,0,0,1-8.9,8.9H422V330h44.518A8.816,8.816,0,0,1,475.421,338.9Z" transform="translate(-171.513 -134.121)" fill="#c5c9f7"/>
  <path id="Path_49" data-name="Path 49" d="M177.3,0C162.524,0,150,11.93,150,26.711V44.518a8.816,8.816,0,0,0,8.9,8.9h36.208a8.816,8.816,0,0,0,8.9-8.9V26.711A26.674,26.674,0,0,0,177.3,0Z" transform="translate(-60.964)" fill="#18a7fc"/>
  <path id="Path_50" data-name="Path 50" d="M222.711,26.711V44.518a8.816,8.816,0,0,1-8.9,8.9H196V0A26.674,26.674,0,0,1,222.711,26.711Z" transform="translate(-79.66)" fill="#1689fc"/>
</svg>
