<svg xmlns="http://www.w3.org/2000/svg" width="27.516" height="26" viewBox="0 0 27.516 26">
  <g id="hand-wash" transform="translate(-0.001 0.848)">
    <path id="Path_130" data-name="Path 130" d="M141.744,232.685l3.945-3.217h0l1.2-.975h0l.8-.649a.6.6,0,1,0-.764-.937l-1.2.974-4.744,3.868a.424.424,0,1,1-.536-.657l4.743-3.868a.6.6,0,1,0-.764-.937l-3.647,2.973h0l-1.9,1.545a.424.424,0,1,1-.536-.657l1.9-1.545a1.71,1.71,0,0,0,.245-2.407.013.013,0,0,0-.009,0,.012.012,0,0,0-.009,0l-5.641,4.6a2.675,2.675,0,0,0-.9,2.7.424.424,0,0,1-.123.412l-.391.363-.021.018-1.331,1.085a1.633,1.633,0,0,0-.234,2.3l2.34,2.869a1.635,1.635,0,0,0,2.3.234l2.192-1.787a.424.424,0,0,1,.387-.079,3.068,3.068,0,0,0,2.386-.656l6.465-5.271a.6.6,0,0,0-.764-.937l-2.751,2.242a.424.424,0,1,1-.536-.657l2.751-2.243a1.473,1.473,0,0,1,.136-.1.429.429,0,0,1,.064-.065l1.4-1.137a.6.6,0,1,0-.764-.937l-1.2.975-3.945,3.217a.424.424,0,1,1-.536-.658Zm0,0" transform="translate(-125.081 -215.988)" fill="#415f77"/>
    <path id="Path_131" data-name="Path 131" d="M7,197.222l.758-.618.206-.192A3.531,3.531,0,0,1,9.209,193.1l1.55-1.264a.427.427,0,0,1,.05-.851h.936a.394.394,0,0,1,.047,0l1.486-1.213H9.651a2.326,2.326,0,0,1-2.288,1.907.421.421,0,0,1-.424-.42.425.425,0,0,1,.424-.425,1.483,1.483,0,0,0,1.479-1.481.429.429,0,0,1,.424-.429h2.957a1.7,1.7,0,0,0,1.71-1.7c0-.007-.006,0-.013,0H6.643a2.657,2.657,0,0,0-2.662,2.654,3.384,3.384,0,0,0,1,2.413l.21.21a.423.423,0,0,1-.6.6l-.21-.213a4.261,4.261,0,0,1-1.251-3.029,3.773,3.773,0,0,1,.107-.875H1.6a1.632,1.632,0,0,0-1.6,1.66v3.7a1.584,1.584,0,0,0,1.6,1.6H3.618a3.65,3.65,0,0,1-.383-.974.41.41,0,0,1,.316-.5.424.424,0,0,1,.509.317A3.2,3.2,0,0,0,7,197.222Zm0,0" transform="translate(0 -178.953)" fill="#415f77"/>
    <path id="Path_132" data-name="Path 132" d="M334.136,67.253a2.243,2.243,0,0,0,.432-2.564.433.433,0,0,0-.023-.041l-1.635-2.591a.424.424,0,0,0-.717,0l-1.635,2.591c-.008.013-.016.027-.023.041a2.242,2.242,0,0,0,3.6,2.564Zm0,0" transform="translate(-314.293 -59.666)" fill="#415f77"/>
    <path id="Path_133" data-name="Path 133" d="M447.531,26.637a.424.424,0,0,0-.359.2l-1.09,1.728a.378.378,0,0,0-.023.041,1.636,1.636,0,1,0,2.943,0,.408.408,0,0,0-.023-.041l-1.09-1.728A.424.424,0,0,0,447.531,26.637Zm0,0" transform="translate(-424.275 -26.152)" fill="#415f77"/>
    <path id="Path_134" data-name="Path 134" d="M257.828,1.119a.452.452,0,0,0-.023-.041L256.715-.65a.423.423,0,0,0-.359-.2.424.424,0,0,0-.359.2l-1.09,1.728a.378.378,0,0,0-.023.041,1.636,1.636,0,1,0,2.943,0Zm0,0" transform="translate(-242.369)" fill="#415f77"/>
    <path id="Path_135" data-name="Path 135" d="M479.11,157.709a1.583,1.583,0,0,1-1.433-1.433.424.424,0,0,0-.845,0,1.583,1.583,0,0,1-1.433,1.433.424.424,0,0,0,0,.845,1.583,1.583,0,0,1,1.434,1.434.424.424,0,0,0,.845,0,1.583,1.583,0,0,1,1.433-1.434.424.424,0,0,0,0-.845Zm0,0" transform="translate(-451.979 -149.138)" fill="#415f77"/>
    <path id="Path_136" data-name="Path 136" d="M441.626,405.116a1.583,1.583,0,0,1-1.434-1.433.424.424,0,0,0-.845,0,1.582,1.582,0,0,1-1.434,1.433.424.424,0,0,0,0,.845,1.583,1.583,0,0,1,1.434,1.434.424.424,0,0,0,.845,0,1.583,1.583,0,0,1,1.433-1.434.424.424,0,0,0,0-.845Zm0,0" transform="translate(-416.312 -384.549)" fill="#415f77"/>
    <path id="Path_137" data-name="Path 137" d="M141.563,52.565a.424.424,0,0,0-.845,0A1.582,1.582,0,0,1,139.285,54a.424.424,0,0,0,0,.845,1.583,1.583,0,0,1,1.434,1.434.424.424,0,0,0,.845,0A1.583,1.583,0,0,1,143,54.844.424.424,0,0,0,143,54,1.583,1.583,0,0,1,141.563,52.565Zm0,0" transform="translate(-132.163 -50.456)" fill="#415f77"/>
  </g>
</svg>
