<svg xmlns="http://www.w3.org/2000/svg" width="48" height="48" viewBox="0 0 48 48">
  <path id="Icon_ionic-ios-contact" data-name="Icon ionic-ios-contact" d="M27.375,3.375h0A23.989,23.989,0,0,0,3.513,24.848a23.127,23.127,0,0,0,0,5.054A23.989,23.989,0,0,0,27.375,51.375h0a24,24,0,1,0,0-48ZM43.044,41c-2.619-.992-6.865-2.446-9.508-3.231-.277-.081-.312-.1-.312-1.235a6.566,6.566,0,0,1,.762-2.688A13.41,13.41,0,0,0,35.048,30.2a8.107,8.107,0,0,0,1.569-3.8,5.064,5.064,0,0,0-.046-3.185,2.043,2.043,0,0,1-.069-.2,20.748,20.748,0,0,1,.358-4.477,8.244,8.244,0,0,0-1.719-5.919A8.82,8.82,0,0,0,28.39,9.4H26.371a8.808,8.808,0,0,0-6.692,3.231,8.209,8.209,0,0,0-1.731,5.919,20.749,20.749,0,0,1,.358,4.477c-.023.081-.046.138-.069.208a4.978,4.978,0,0,0-.046,3.185,8.232,8.232,0,0,0,1.569,3.8,13.965,13.965,0,0,0,1.062,3.646,6.446,6.446,0,0,1,.438,2.723c0,1.142-.046,1.154-.3,1.235-2.735.808-6.8,2.238-9.231,3.208A20.768,20.768,0,0,1,42.063,12.687,20.769,20.769,0,0,1,43.044,41Z" transform="translate(-3.375 -3.375)" fill="#415f77"/>
</svg>
