<svg id="memorial" xmlns="http://www.w3.org/2000/svg" width="512" height="512" viewBox="0 0 512 512">
  <path id="Path_731" data-name="Path 731" d="M497,482H482V467a14.991,14.991,0,0,0-15-15H45a14.991,14.991,0,0,0-15,15v15H15a15,15,0,0,0,0,30H497a15,15,0,0,0,0-30Z"/>
  <path id="Path_732" data-name="Path 732" d="M421,253.246a15.011,15.011,0,0,0-9.976-14.136,29.743,29.743,0,0,1,0-56.22C417,180.766,421,172.343,421,166,421,75.019,346.981,0,256,0S91,75.019,91,168.754a15.011,15.011,0,0,0,9.976,14.136,29.743,29.743,0,0,1,0,56.22A15.011,15.011,0,0,0,91,253.246V422H421ZM226,91h15V76a15,15,0,0,1,30,0V91h15a15,15,0,0,1,0,30H271v45a15,15,0,0,1-30,0V121H226a15,15,0,0,1,0-30ZM211,211h90a15,15,0,0,1,0,30H211a15,15,0,0,1,0-30Zm90,150H211a15,15,0,0,1,0-30h90a15,15,0,0,1,0,30Zm30-60H181a15,15,0,0,1,0-30H331a15,15,0,0,1,0,30Z"/>
</svg>
