<svg id="news" xmlns="http://www.w3.org/2000/svg" width="23.567" height="23.567" viewBox="0 0 23.567 23.567">
  <g id="Group_28" data-name="Group 28" transform="translate(0 0)">
    <path id="Path_138" data-name="Path 138" d="M22.725,5.892H18.517V.842A.842.842,0,0,0,17.675,0H.842A.842.842,0,0,0,0,.842V20.2a3.367,3.367,0,0,0,3.367,3.367H20.2A3.367,3.367,0,0,0,23.567,20.2V6.733A.842.842,0,0,0,22.725,5.892ZM6.733,4.208h5.05a.842.842,0,1,1,0,1.683H6.733a.842.842,0,1,1,0-1.683ZM14.308,20.2H4.208a.842.842,0,0,1,0-1.683h10.1a.842.842,0,1,1,0,1.683Zm0-3.367H4.208a.842.842,0,1,1,0-1.683h10.1a.842.842,0,1,1,0,1.683Zm0-3.367H4.208a.842.842,0,1,1,0-1.683h10.1a.842.842,0,1,1,0,1.683Zm0-3.367H4.208a.842.842,0,0,1,0-1.683h10.1a.842.842,0,1,1,0,1.683Zm7.575,10.1a1.683,1.683,0,0,1-3.367,0V7.575h3.367V20.2Z" transform="translate(0 0)"/>
  </g>
</svg>
