<svg xmlns="http://www.w3.org/2000/svg" width="61.443" height="58.605" viewBox="0 0 61.443 58.605">
  <g id="recovered" transform="translate(-32 -50.446)">
    <path id="Path_744" data-name="Path 744" d="M170.4,293.25l-1.4-3.143a11.564,11.564,0,0,1-5.031,1.044,11.276,11.276,0,0,1-5.146-1.126l-1.478,3.187a.854.854,0,0,1-.51.453c-.193.063-.391.125-.592.187a7.932,7.932,0,0,0,7.726,6.01,8.42,8.42,0,0,0,7.327-4.329q.2-.786.47-1.542c-.31-.1-.594-.189-.861-.279A.854.854,0,0,1,170.4,293.25Z" transform="translate(-107.427 -205.472)" fill="#ffd00c"/>
    <path id="Path_745" data-name="Path 745" d="M124.311,61.443a4.632,4.632,0,0,0,2.385,2.751c1.748.822,4.124.565,7.063-.764a21.546,21.546,0,0,0,7.514-5.174,7.4,7.4,0,0,0,1.547-2.453.849.849,0,0,1,1.235-.524,12.978,12.978,0,0,1,3.437,2.9,10.091,10.091,0,0,0-1.753-3.758c-2-2.639-5.207-3.977-9.526-3.977-4.287,0-7.551,1.263-9.7,3.753a9.239,9.239,0,0,0-2.335,6.52c.023.158.069.407.132.719Z" transform="translate(-79.791)"/>
    <path id="Path_746" data-name="Path 746" d="M138.029,116.011a.837.837,0,0,1,.471-.131h.026c1.417,0,3.067-2.123,3.689-4.755a1.64,1.64,0,0,0-.5-1.865c-.427-.22-.847.153-1.06.394a.854.854,0,0,1-1.358-1.029,28.439,28.439,0,0,0,.593-4.517c-.009-2.652-2.329-4.668-3.589-5.566-.865,1.624-3.271,4.849-9.562,7.695a13.6,13.6,0,0,1-5.506,1.384,6.926,6.926,0,0,1-3.02-.646,6.018,6.018,0,0,1-.736-.418,12.985,12.985,0,0,0,.63,2.037.854.854,0,0,1-1.315,1.085c-.379-.4-.785-.526-1.114-.348a1.575,1.575,0,0,0-.471,1.8c.622,2.632,2.272,4.755,3.69,4.755h.043a.852.852,0,0,1,.854.824c.057.828.514,5.07,3.935,7.23a9.19,9.19,0,0,0,4.984,1.286,9.377,9.377,0,0,0,4.995-1.258c3.485-2.155,3.881-6.417,3.924-7.249A.854.854,0,0,1,138.029,116.011Z" transform="translate(-72.06 -41.249)" fill="#a45c07"/>
    <path id="Path_747" data-name="Path 747" d="M64.239,325.551c0-.242.006-.484.017-.724a9.975,9.975,0,0,1-6.842,2.7,9.642,9.642,0,0,1-9.372-7.236q-.661.186-1.354.377c-3.322.918-7.086,1.959-9.972,3.7C33.542,326.275,32,328.723,32,331.851V338c0,.922,1.712,2.466,2.733,2.466H73.51A16.658,16.658,0,0,1,64.239,325.551Z" transform="translate(0 -231.431)" fill="#ffd00c"/>
    <path id="Path_748" data-name="Path 748" d="M334.338,305.91a3.326,3.326,0,0,0-3.323,3.322.854.854,0,0,1-1.708,0,3.328,3.328,0,0,0-3.323-3.325c-.555,0-3.322.2-3.322,4.117,0,4.633,5.793,9.1,7.5,10.311,1.7-1.219,7.5-5.706,7.5-10.312C337.661,308.433,336.759,305.91,334.338,305.91Z" transform="translate(-251.65 -219.093)" fill="#fc5050"/>
    <path id="Path_749" data-name="Path 749" d="M285.4,252.34a14.931,14.931,0,0,0-.661,29.847h.47a.861.861,0,0,1,.157.015h.034a14.931,14.931,0,1,0,0-29.863Zm4.782,20.234a29.466,29.466,0,0,1-4.316,3.573.854.854,0,0,1-.93,0,29.164,29.164,0,0,1-4.317-3.56c-2.937-2.945-4.426-5.807-4.426-8.506a6.778,6.778,0,0,1,1.1-3.837,4.579,4.579,0,0,1,3.934-1.988,5.029,5.029,0,0,1,4.177,2.231,5.03,5.03,0,0,1,4.176-2.228c3.268,0,5.031,3,5.031,5.821C294.6,266.765,293.115,269.623,290.178,272.574Z" transform="translate(-206.884 -173.151)" fill="#fc5050"/>
  </g>
</svg>
