<svg xmlns="http://www.w3.org/2000/svg" width="220.132" height="133.391" viewBox="0 0 220.132 133.391">
  <g id="soap" transform="translate(28.525 -0.043)">
    <path id="Path_87" data-name="Path 87" d="M64.868,19.273a5.526,5.526,0,0,0-5.211,5.6V53.7H58.024V11.546a5.526,5.526,0,0,0-5.211-5.6,5.377,5.377,0,0,0-5.542,5.374V53.7H45.638V5.6A5.526,5.526,0,0,0,40.427,0a5.377,5.377,0,0,0-5.542,5.374V53.7H33.252V12.8a5.526,5.526,0,0,0-5.211-5.6A5.377,5.377,0,0,0,22.5,12.575V73.029L12.965,56.3A6.94,6.94,0,0,0,.918,63.193L21.852,99.927l.077.26a10.7,10.7,0,0,0,10.388,7.67l28.362-.337q.4,0,.793-.039A10.031,10.031,0,0,0,70.41,97.374V24.647a5.377,5.377,0,0,0-5.542-5.374Z" transform="translate(54.099 0.043) rotate(50)" fill="#a45c07"/>
    <path id="Path_90" data-name="Path 90" d="M3.328,28.132a5.526,5.526,0,0,1,7.047,2.974l11.805,26.3,1.49-.669L6.408,18.28a5.526,5.526,0,0,1,2.461-7.242,5.377,5.377,0,0,1,7.257,2.633L33.481,52.336l1.489-.669L15.273,7.785A5.526,5.526,0,0,1,17.735.543a5.377,5.377,0,0,1,7.257,2.633L44.78,47.264l1.49-.669L29.521,9.28a5.526,5.526,0,0,1,2.461-7.242,5.377,5.377,0,0,1,7.257,2.633L56.08,42.192l2.578,5.745,5.336,11.888,1.847-19.167a6.94,6.94,0,0,1,13.814,1.357L75.6,84.1l.037.269A10.7,10.7,0,0,1,69.3,95.619L43.287,106.925q-.366.159-.739.289a10.031,10.031,0,0,1-12.294-5.561L15.232,68.187l-2.862-6.376L.473,35.3a5.377,5.377,0,0,1,2.855-7.172Z" transform="matrix(0.94, -0.342, 0.342, 0.94, 79.874, 32.192)" fill="#a45c07"/>
  </g>
</svg>
