<svg xmlns="http://www.w3.org/2000/svg" width="27.159" height="23.039" viewBox="0 0 27.159 23.039">
  <g id="team" transform="translate(0 -38.84)">
    <g id="Group_30" data-name="Group 30" transform="translate(21.138 51.278)">
      <g id="Group_29" data-name="Group 29">
        <path id="Path_139" data-name="Path 139" d="M400.594,273.32h-2.1a5.463,5.463,0,0,1,.331,1.878v7.938a2.34,2.34,0,0,1-.135.784h3.472a2.355,2.355,0,0,0,2.352-2.352v-4.328A3.925,3.925,0,0,0,400.594,273.32Z" transform="translate(-398.494 -273.32)"/>
      </g>
    </g>
    <g id="Group_32" data-name="Group 32" transform="translate(0 51.278)">
      <g id="Group_31" data-name="Group 31">
        <path id="Path_140" data-name="Path 140" d="M5.69,275.2a5.464,5.464,0,0,1,.331-1.878h-2.1A3.925,3.925,0,0,0,0,277.242v4.328a2.355,2.355,0,0,0,2.352,2.352H5.825a2.342,2.342,0,0,1-.135-.784Z" transform="translate(0 -273.321)"/>
      </g>
    </g>
    <g id="Group_34" data-name="Group 34" transform="translate(7.258 49.236)">
      <g id="Group_33" data-name="Group 33">
        <path id="Path_141" data-name="Path 141" d="M145.551,234.815h-4.8a3.925,3.925,0,0,0-3.921,3.921v7.938a.784.784,0,0,0,.784.784h11.075a.784.784,0,0,0,.784-.784v-7.938A3.925,3.925,0,0,0,145.551,234.815Z" transform="translate(-136.829 -234.815)"/>
      </g>
    </g>
    <g id="Group_36" data-name="Group 36" transform="translate(8.865 38.84)">
      <g id="Group_35" data-name="Group 35">
        <path id="Path_142" data-name="Path 142" d="M171.829,38.84a4.714,4.714,0,1,0,4.715,4.715A4.72,4.72,0,0,0,171.829,38.84Z" transform="translate(-167.114 -38.84)"/>
      </g>
    </g>
    <g id="Group_38" data-name="Group 38" transform="translate(1.774 43.235)">
      <g id="Group_37" data-name="Group 37">
        <path id="Path_143" data-name="Path 143" d="M36.969,121.689a3.524,3.524,0,1,0,3.526,3.526A3.53,3.53,0,0,0,36.969,121.689Z" transform="translate(-33.443 -121.689)"/>
      </g>
    </g>
    <g id="Group_40" data-name="Group 40" transform="translate(18.333 43.235)">
      <g id="Group_39" data-name="Group 39">
        <path id="Path_144" data-name="Path 144" d="M349.133,121.689a3.526,3.526,0,1,0,3.526,3.526A3.53,3.53,0,0,0,349.133,121.689Z" transform="translate(-345.607 -121.689)"/>
      </g>
    </g>
  </g>
</svg>
