<svg xmlns="http://www.w3.org/2000/svg" width="53.889" height="53.889" viewBox="0 0 53.889 53.889">
  <g id="virus" transform="translate(0 0)">
    <path id="Path_92" data-name="Path 92" d="M51.452,20.223a2.437,2.437,0,0,0-2.437,2.437v1.848H44.591a17.721,17.721,0,0,0-3.446-8.317l3.129-3.129,1.307,1.307a2.437,2.437,0,1,0,3.446-3.446l-6.06-6.06a2.437,2.437,0,1,0-3.446,3.446l1.307,1.307L37.7,12.744A17.722,17.722,0,0,0,29.381,9.3V4.873H31.23A2.437,2.437,0,0,0,31.23,0H22.66a2.437,2.437,0,0,0,0,4.873h1.848V9.3a17.722,17.722,0,0,0-8.317,3.446L13.061,9.615l1.307-1.307a2.437,2.437,0,0,0-3.446-3.446l-6.06,6.06a2.437,2.437,0,0,0,3.446,3.446l1.307-1.307,3.129,3.129A17.722,17.722,0,0,0,9.3,24.508H4.873V22.66A2.437,2.437,0,0,0,0,22.66v8.57a2.437,2.437,0,1,0,4.873,0V29.381H9.3A17.722,17.722,0,0,0,12.744,37.7L9.615,40.828,8.308,39.521a2.437,2.437,0,1,0-3.446,3.446l6.06,6.06a2.437,2.437,0,1,0,3.446-3.446l-1.307-1.307,3.129-3.129a17.722,17.722,0,0,0,8.317,3.446v4.425H22.659a2.437,2.437,0,0,0,0,4.873h8.57a2.437,2.437,0,0,0,0-4.873H29.381V44.591A17.722,17.722,0,0,0,37.7,41.145l3.129,3.129-1.307,1.307a2.437,2.437,0,0,0,3.446,3.446l6.06-6.06a2.437,2.437,0,0,0-3.446-3.446l-1.307,1.307L41.145,37.7a17.722,17.722,0,0,0,3.446-8.317h4.425V31.23a2.437,2.437,0,1,0,4.873,0V22.66A2.437,2.437,0,0,0,51.452,20.223Z" transform="translate(0 0)" fill="#ec0f0f"/>
    <circle id="Ellipse_15" data-name="Ellipse 15" cx="13.145" cy="13.145" r="13.145" transform="translate(13.8 13.8)" fill="#7c7cd1"/>
    <path id="Path_93" data-name="Path 93" d="M143.666,154.433a13.147,13.147,0,0,1-5.752-24.967,13.146,13.146,0,1,0,8.251,24.729A13.205,13.205,0,0,1,143.666,154.433Z" transform="translate(-113.468 -115.428)" fill="#7c7cd1"/>
    <g id="Group_17" data-name="Group 17" transform="translate(15.912 26.766)">
      <ellipse id="Ellipse_16" data-name="Ellipse 16" cx="2.973" cy="2.368" rx="2.973" ry="2.368" fill="#ff97c0"/>
      <ellipse id="Ellipse_17" data-name="Ellipse 17" cx="2.973" cy="2.368" rx="2.973" ry="2.368" transform="translate(16.117)" fill="#ff97c0"/>
    </g>
    <g id="Group_18" data-name="Group 18" transform="translate(18.565 23.74)">
      <path id="Path_94" data-name="Path 94" d="M2.481,0A3.025,3.025,0,0,0,.2,1.039.813.813,0,1,0,1.426,2.107a1.4,1.4,0,0,1,2.109,0A.813.813,0,1,0,4.762,1.039,3.026,3.026,0,0,0,2.481,0Z" transform="translate(10.86 5.651) rotate(180)" fill="#423e4f"/>
      <path id="Path_95" data-name="Path 95" d="M174.682,219.628l-2.438-.653a.813.813,0,1,0-.421,1.571l.664.178a.813.813,0,0,0-.027.2v1.05a.813.813,0,1,0,1.626,0v-.826l.174.047a.813.813,0,1,0,.421-1.571Z" transform="translate(-171.221 -218.947)" fill="#423e4f"/>
      <path id="Path_96" data-name="Path 96" d="M292.33,219.551a.813.813,0,0,0-1-.575l-2.438.653a.813.813,0,1,0,.421,1.571l.174-.047v.826a.813.813,0,1,0,1.626,0v-1.05a.814.814,0,0,0-.027-.2l.664-.178A.813.813,0,0,0,292.33,219.551Z" transform="translate(-275.599 -218.947)" fill="#423e4f"/>
    </g>
  </g>
</svg>
