<svg xmlns="http://www.w3.org/2000/svg" width="512" height="512" viewBox="0 0 512 512">
  <g id="waste-water" transform="translate(0)">
    <path id="Path_97" data-name="Path 97" d="M512,256c0,141.38-114.62,256-256,256C124.3,512,15.83,412.55,1.59,284.65a31.639,31.639,0,0,0-.09-54.16l-.23-.14A256.041,256.041,0,0,1,478.32,129,254.786,254.786,0,0,1,512,256Z" fill="#81f700"/>
    <path id="Path_98" data-name="Path 98" d="M512,256A256.016,256.016,0,0,1,46.62,403.33,254.535,254.535,0,0,1,1.59,284.65a31.639,31.639,0,0,0-.09-54.16l-.23-.14A254.257,254.257,0,0,1,33.68,129a257.216,257.216,0,0,0,93.05,94,254.363,254.363,0,0,0,113.24,34.5q7.95.495,16.03.5,8.145,0,16.17-.5a254.9,254.9,0,0,0,66.6-13.19A256.7,256.7,0,0,0,478.32,129,254.786,254.786,0,0,1,512,256Z" fill="#00cc7f"/>
    <path id="Path_99" data-name="Path 99" d="M189.55,130.29H219.9V257.08H189.55Z" fill="#de1263"/>
    <path id="Path_100" data-name="Path 100" d="M204.73,130.29H219.9V257.08H204.73Z" fill="#bc0e5c"/>
    <path id="Path_101" data-name="Path 101" d="M372.48,308.71v33.91h-54.3V308.71a24.057,24.057,0,0,0-24.06-24.06h-.4a36.238,36.238,0,0,0-29.34,14.73,71.249,71.249,0,0,1-103.55,12.56,115.774,115.774,0,0,0-74.75-27.29H1.59A258.292,258.292,0,0,1,0,256q0-12.99,1.27-25.65H86.08a115.89,115.89,0,0,0,74.75-27.3,71.249,71.249,0,0,1,103.55,12.56,36.247,36.247,0,0,0,29.34,14.74h.4a78.349,78.349,0,0,1,78.36,78.36Z" fill="#fff"/>
    <path id="Path_102" data-name="Path 102" d="M345.33,308.71v33.91H318.18V308.71a24.057,24.057,0,0,0-24.06-24.06h-.4a36.238,36.238,0,0,0-29.34,14.73,71.249,71.249,0,0,1-103.55,12.56,115.774,115.774,0,0,0-74.75-27.29H1.59A256.207,256.207,0,0,1,.01,257.5H294.12A51.2,51.2,0,0,1,345.33,308.71Z" fill="#cff6ff"/>
    <path id="Path_103" data-name="Path 103" d="M242.29,124.6v21.99a14.4,14.4,0,0,1-14.4,14.4H180.81a14.4,14.4,0,0,1-14.4-14.4V124.6Z" fill="#fe3244"/>
    <path id="Path_104" data-name="Path 104" d="M242.29,124.6v21.99a14.4,14.4,0,0,1-14.4,14.4H204.73V124.6Z" fill="#de1263"/>
    <path id="Path_105" data-name="Path 105" d="M273.34,124.6a18.164,18.164,0,0,1-18.18,18.17H153.54a18.175,18.175,0,1,1,0-36.35H255.16a18.181,18.181,0,0,1,18.18,18.18Z" fill="#de1263"/>
    <path id="Path_106" data-name="Path 106" d="M273.34,124.6a18.164,18.164,0,0,1-18.18,18.17H204.73V106.42h50.43a18.181,18.181,0,0,1,18.18,18.18Z" fill="#bc0e5c"/>
    <path id="Path_107" data-name="Path 107" d="M375.492,455.538a44.07,44.07,0,0,1-64.869-59.291c5.647-7.2,10.953-14.651,16.178-22.165l14.272-20.531a5.18,5.18,0,0,1,8.512,0l14.272,20.531c5.224,7.515,10.531,14.966,16.178,22.165a44.071,44.071,0,0,1-4.543,59.291Z" fill="#fff"/>
    <path id="Path_108" data-name="Path 108" d="M375.492,455.538a43.889,43.889,0,0,1-30.16,11.894V351.323a5.142,5.142,0,0,1,4.253,2.227l14.272,20.531c5.224,7.515,10.531,14.966,16.178,22.165A44.072,44.072,0,0,1,375.492,455.538Z" fill="#cff6ff"/>
    <g id="Group_20" data-name="Group 20">
      <path id="Path_109" data-name="Path 109" d="M381.887,422.18a4.661,4.661,0,0,1-4.664,4.664H356.274l14.819,14.819a4.664,4.664,0,0,1-6.6,6.6L349.677,433.44v20.949a4.66,4.66,0,0,1-4.4,4.651,1.83,1.83,0,0,1-.267.013,4.669,4.669,0,0,1-4.664-4.664V433.44l-14.8,14.819a4.664,4.664,0,0,1-6.6-6.6l14.806-14.819H312.816a4.664,4.664,0,0,1,0-9.328h20.936L318.946,402.71a4.664,4.664,0,1,1,6.6-6.6l14.8,14.806V389.984a4.661,4.661,0,0,1,4.664-4.664,1.844,1.844,0,0,1,.267.013,4.652,4.652,0,0,1,4.4,4.651V410.92L364.5,396.114a4.664,4.664,0,0,1,6.6,6.6l-14.819,14.806h20.949a4.669,4.669,0,0,1,4.664,4.664Z" fill="#81f700"/>
      <path id="Path_110" data-name="Path 110" d="M381.887,422.18a4.661,4.661,0,0,1-4.664,4.664H356.274l14.819,14.819a4.664,4.664,0,0,1-6.6,6.6L349.677,433.44v20.949a4.66,4.66,0,0,1-4.4,4.651V385.332a4.652,4.652,0,0,1,4.4,4.651v20.936L364.5,396.113a4.664,4.664,0,0,1,6.6,6.6l-14.819,14.806h20.949a4.67,4.67,0,0,1,4.664,4.665Z" fill="#00cc7f"/>
      <path id="Path_111" data-name="Path 111" d="M367.708,422.18a22.351,22.351,0,0,1-22.348,22.348h-.08a22.342,22.342,0,0,1,0-44.683h.08A22.34,22.34,0,0,1,367.708,422.18Z" fill="#00cc7f"/>
      <path id="Path_112" data-name="Path 112" d="M367.708,422.18a22.351,22.351,0,0,1-22.348,22.348h-.08V399.845h.08a22.34,22.34,0,0,1,22.348,22.335Z" fill="#029291"/>
      <path id="Path_113" data-name="Path 113" d="M356.567,422.18a11.206,11.206,0,0,1-11.207,11.207h-.08a11.207,11.207,0,0,1,0-22.414h.08A11.213,11.213,0,0,1,356.567,422.18Z" fill="#81f700"/>
      <path id="Path_114" data-name="Path 114" d="M356.567,422.18a11.206,11.206,0,0,1-11.207,11.207h-.08V410.972h.08A11.215,11.215,0,0,1,356.567,422.18Z" fill="#00cc7f"/>
    </g>
  </g>
</svg>
